<svg width="16" height="17" viewBox="0 0 16 17" fill="none" xmlns="http://www.w3.org/2000/svg">
<path d="M2 4.5H3.33333H14" stroke="#85AA9F" stroke-opacity="0.94" stroke-width="1.3" stroke-linecap="round" stroke-linejoin="round"/>
<path d="M12.6673 4.49998V13.8333C12.6673 14.1869 12.5268 14.5261 12.2768 14.7761C12.0267 15.0262 11.6876 15.1666 11.334 15.1666H4.66732C4.3137 15.1666 3.97456 15.0262 3.72451 14.7761C3.47446 14.5261 3.33398 14.1869 3.33398 13.8333V4.49998M5.33398 4.49998V3.16665C5.33398 2.81302 5.47446 2.47389 5.72451 2.22384C5.97456 1.97379 6.3137 1.83331 6.66732 1.83331H9.33398C9.68761 1.83331 10.0267 1.97379 10.2768 2.22384C10.5268 2.47389 10.6673 2.81302 10.6673 3.16665V4.49998" stroke="#85AA9F" stroke-opacity="0.94" stroke-width="1.3" stroke-linecap="round" stroke-linejoin="round"/>
<path d="M6.66602 7.83331V11.8333" stroke="#85AA9F" stroke-opacity="0.94" stroke-width="1.3" stroke-linecap="round" stroke-linejoin="round"/>
<path d="M9.33398 7.83331V11.8333" stroke="#85AA9F" stroke-opacity="0.94" stroke-width="1.3" stroke-linecap="round" stroke-linejoin="round"/>
</svg>
