<svg width="16" height="17" viewBox="0 0 16 17" fill="none" xmlns="http://www.w3.org/2000/svg">
<path d="M11.334 2.49998C11.5091 2.32488 11.7169 2.18599 11.9457 2.09123C12.1745 1.99647 12.4197 1.94769 12.6673 1.94769C12.9149 1.94769 13.1601 1.99647 13.3889 2.09123C13.6177 2.18599 13.8256 2.32488 14.0007 2.49998C14.1757 2.67507 14.3146 2.88294 14.4094 3.11172C14.5042 3.34049 14.5529 3.58569 14.5529 3.83331C14.5529 4.08093 14.5042 4.32613 14.4094 4.55491C14.3146 4.78368 14.1757 4.99155 14.0007 5.16664L5.00065 14.1666L1.33398 15.1666L2.33398 11.5L11.334 2.49998Z" stroke="#85AA9F" stroke-width="1.3" stroke-linecap="round" stroke-linejoin="round"/>
</svg>
