<svg width="40.000000" height="40.000000" viewBox="0 0 40 40" fill="none" xmlns="http://www.w3.org/2000/svg" xmlns:xlink="http://www.w3.org/1999/xlink">
	<defs/>
	<circle id="Ellipse 2" cx="20.000000" cy="20.000000" r="20.000000" fill="#FCFCFC" fill-opacity="1.000000"/>
	<path id="Union" d="M20.4434 19C26.3867 14.517 26.6504 11.8 20.4434 7C14.1191 11.9024 14.9336 14.501 20.4434 19ZM7 20.5569C11.8008 14.3505 14.5176 14.613 19 20.5569C14.5 26.0664 11.9023 26.8817 7 20.5569ZM22 20.5569C26.8008 14.3505 29.5176 14.613 34 20.5569C29.5 26.0664 26.9023 26.8817 22 20.5569ZM20.4434 22C26.6504 26.8 26.3867 29.517 20.4434 34C14.9336 29.501 14.1191 26.9024 20.4434 22Z" clip-rule="evenodd" fill="#85AA9F" fill-opacity="1.000000" fill-rule="evenodd"/>
</svg>
