<svg width="36.000000" height="36.000000" viewBox="0 0 36 36" fill="none" xmlns="http://www.w3.org/2000/svg" xmlns:xlink="http://www.w3.org/1999/xlink">

	<defs>
		<clipPath id="clip68_16904">
			<rect id="gridicons:user" width="20.000000" height="20.000000" transform="translate(8.000000 8.000000)" fill="white" fill-opacity="0"/>
		</clipPath>
	</defs>
	<rect id="Image" rx="18.000000" width="36.000000" height="36.000000" fill="#85AA9F" fill-opacity="1.000000"/>
	<rect id="gridicons:user" width="20.000000" height="20.000000" transform="translate(8.000000 8.000000)" fill="#FFFFFF" fill-opacity="0"/>
	<g clip-path="url(#clip68_16904)">
		<path id="Vector" d="M17.99 11.33C18.88 11.33 19.73 11.68 20.35 12.3C20.98 12.93 21.33 13.78 21.33 14.66C21.33 15.55 20.98 16.39 20.35 17.02C19.73 17.64 18.88 17.99 17.99 17.99C17.11 17.99 16.26 17.64 15.64 17.02C15.01 16.39 14.66 15.55 14.66 14.66C14.66 13.78 15.01 12.93 15.64 12.3C16.26 11.68 17.11 11.33 17.99 11.33ZM17.99 24.66C17.99 24.66 24.66 24.66 24.66 22.99C24.66 20.99 21.41 18.83 17.99 18.83C14.58 18.83 11.33 20.99 11.33 22.99C11.33 24.66 17.99 24.66 17.99 24.66Z" fill="#FCFCFC" fill-opacity="0.700000" fill-rule="nonzero"/>
	</g>
</svg>


