<svg width="14" height="8" viewBox="0 0 14 8" fill="none" xmlns="http://www.w3.org/2000/svg">
<mask id="path-1-inside-1_126_1565" fill="white">
<path d="M7 7.75195L0.75 1.50195L1.625 0.626953L7 6.00195L12.375 0.626953L13.25 1.50195L7 7.75195Z"/>
</mask>
<path d="M7 7.75195L0.75 1.50195L1.625 0.626953L7 6.00195L12.375 0.626953L13.25 1.50195L7 7.75195Z" fill="#FCFCFC"/>
<path d="M7 7.75195L5.93934 8.81261L7 9.87327L8.06066 8.81261L7 7.75195ZM0.75 1.50195L-0.31066 0.441293L-1.37132 1.50195L-0.31066 2.56261L0.75 1.50195ZM1.625 0.626953L2.68566 -0.433707L1.625 -1.49437L0.56434 -0.433707L1.625 0.626953ZM7 6.00195L5.93934 7.06261L7 8.12327L8.06066 7.06261L7 6.00195ZM12.375 0.626953L13.4357 -0.433707L12.375 -1.49437L11.3143 -0.433707L12.375 0.626953ZM13.25 1.50195L14.3107 2.56261L15.3713 1.50195L14.3107 0.441293L13.25 1.50195ZM8.06066 6.69129L1.81066 0.441293L-0.31066 2.56261L5.93934 8.81261L8.06066 6.69129ZM1.81066 2.56261L2.68566 1.68761L0.56434 -0.433707L-0.31066 0.441293L1.81066 2.56261ZM0.56434 1.68761L5.93934 7.06261L8.06066 4.94129L2.68566 -0.433707L0.56434 1.68761ZM8.06066 7.06261L13.4357 1.68761L11.3143 -0.433707L5.93934 4.94129L8.06066 7.06261ZM11.3143 1.68761L12.1893 2.56261L14.3107 0.441293L13.4357 -0.433707L11.3143 1.68761ZM12.1893 0.441293L5.93934 6.69129L8.06066 8.81261L14.3107 2.56261L12.1893 0.441293Z" fill="#FCFCFC" mask="url(#path-1-inside-1_126_1565)"/>
</svg>
